<svg width="498" height="131" viewBox="0 0 498 131" fill="none" xmlns="http://www.w3.org/2000/svg">
<path d="M84.1593 32.1162C88.0684 31.2671 91.4959 31.7108 95.4395 31.3785C108.079 30.3129 121.558 31.7326 134.053 29.9153C139.282 29.155 146.044 24.9627 151.22 23.5112C180.036 12.4536 210.28 4.30578 241.117 1.7487C246.694 1.28626 256.091 -0.192636 261.281 0.0209542C273.856 0.538593 286.895 1.90323 299.298 3.91934C328.115 9.48688 355.749 22.2308 379.457 39.436C380.623 40.2809 381.896 41.2672 383.095 42.0365C410.166 44.0895 475.225 51.6052 492.644 71.878C493.618 73.0091 494.41 74.2742 495.105 75.5912C489.846 73.9874 453.556 67.8601 448.81 68.5889L448.498 68.9921C449.134 70.9572 458.481 77.6961 460.613 79.2332C468.576 84.9752 478.269 84.9571 487.633 85.4116C490.984 85.5743 494.634 86.0977 498.001 86.1649C497.72 88.8963 497.097 92.3246 496.612 95.018C495.133 103.192 494.444 113.054 492.449 120.969C490.811 127.466 472.08 126.722 466.877 127.094L428.263 129.715C430.919 124.319 432.661 120.665 433.177 114.599C434.312 101.199 426.466 88.1407 414.262 82.1325C406.597 78.4045 397.766 77.8702 389.711 80.6468C372.922 86.3633 363.665 104.557 368.514 121.582C368.985 123.239 371.664 128.539 371.271 129.775C368.084 130.215 357.632 129.947 354.047 129.944L254.646 129.936C244.632 129.936 231.239 130.315 221.412 129.839C226.491 120.913 228.467 112.996 225.675 102.855C223.29 94.1943 217.332 86.9708 209.54 82.5117C202.477 78.4701 192.502 77.7483 184.695 79.7148C179.589 81.0014 173.323 85.1175 169.734 88.9247C164.117 88.8854 157.744 88.2308 152.008 87.9666L110.52 86.0857L60.5568 83.9716C47.4314 83.4518 34.2689 82.8463 21.1371 82.8965C19.3975 82.9032 11.2473 83.5048 10.4094 82.0575C18.0964 81.0851 24.4575 81.2986 31.895 80.9068L71.8498 78.7304L147.597 74.8733C152.664 74.6392 157.731 74.2058 162.804 74.0306L206.823 72.1489C209.834 72.001 218.001 72.1071 220.119 71.6255L221.489 70.3861C219.195 69.7209 213.073 69.8121 210.441 69.6682L59.2657 61.98L21.006 59.9496C14.3204 59.6575 6.70847 60.1337 0 58.9761C7.72159 57.3377 14.8586 58.0986 22.7326 57.9214L58.3118 56.9328C65.4293 56.783 72.7561 56.3061 79.8454 56.0614L142.851 54.0517C151.991 53.7925 161.271 53.7595 170.414 53.197C172.484 53.0695 176.156 53.1038 178.013 52.6529L178.165 51.6672C173.579 50.4989 160.48 49.7561 155.305 49.3424L103.707 45.2173C95.4552 44.5583 84.733 44.4121 76.7304 42.6545C78.2302 39.1617 81.6889 35.0674 84.1593 32.1162ZM245.804 15.0064C246.99 20.4635 251.412 29.0194 253.675 34.2948C255.109 37.6397 257.009 42.6358 258.535 45.7477C262.272 45.6696 265.344 45.822 269.057 46.0332C291.786 47.3267 314.459 48.0326 337.219 46.947C339.753 46.8262 342.537 46.7377 345.076 46.7536C351.563 46.6495 356.803 45.9068 362.775 45.7078C357.867 40.7329 349.803 36.4779 343.684 33.023C319.077 19.1342 290.882 12.4553 262.609 13.9915C257.043 14.4788 251.398 14.9669 245.804 15.0064ZM197.356 37.9603C206.754 39.5008 216.176 40.8959 225.618 42.145C230.763 42.8593 235.925 43.7781 241.081 44.296C239.978 38.239 236.114 30.6103 234 24.68C233.672 23.7615 231.87 18.6641 231.554 18.1005C230.99 17.9746 230.537 17.8477 229.958 17.8533C225.317 18.6292 220.704 19.5642 216.127 20.656C209.95 22.1915 182.927 30.0135 179.609 33.9653L179.461 34.5571C180.782 35.6645 194.726 37.7281 197.356 37.9603Z" fill="#9D2AB7"/>
<path d="M157.137 96.0306C159.122 95.8905 162.436 96.0002 164.518 96.0027C162.093 100.823 160.861 103.828 160.147 109.341C115.586 107.628 71.0141 106.172 26.4357 104.972C24.0135 104.886 16.7451 105.076 14.7983 104.764L14.9122 104.393C16.5121 103.725 22.1368 104.155 24.3207 103.978C59.922 101.312 95.5525 99.0518 131.205 97.1977C139.782 96.6707 148.41 96.7451 157.137 96.0306Z" fill="#9D2AB7"/>
<path d="M157.919 118.389C158.319 118.324 160.635 118.012 160.762 118.462C161.948 122.683 163.381 126.079 165.525 129.931C159.279 129.944 152.997 129.949 146.756 129.718C143.254 129.589 139.708 129.126 136.228 128.996L69.3181 126.832C65.8633 126.738 62.7541 126.441 59.2206 126.416C54.3763 126.453 52.573 126.401 47.8291 125.494C51.2878 124.814 54.3908 125.126 57.7586 124.834C63.1074 124.37 68.6152 124.308 73.9077 123.938L126.949 120.207C136.472 119.609 148.621 119.348 157.919 118.389Z" fill="#9D2AB7"/>
</svg>
